HIERARCHY
ROOT joint_Root
{
	OFFSET 0.0 0.0 0.0
	CHANNELS 6 Xposition Yposition Zposition Zrotation Xrotation Yrotation 
	JOINT Hips
	{
		OFFSET 4.5925 91.4895 -427.239
		CHANNELS 6 Xposition Yposition Zposition Zrotation Xrotation Yrotation 
		JOINT Spine
		{
			OFFSET 15.7357 0.0 0.0
			CHANNELS 6 Xposition Yposition Zposition Zrotation Xrotation Yrotation 
			JOINT Chest
			{
				OFFSET 8.98455 -0.406207 0.0
				CHANNELS 6 Xposition Yposition Zposition Zrotation Xrotation Yrotation 
				JOINT Neck
				{
					OFFSET 16.3773 0.0 0.0
					CHANNELS 6 Xposition Yposition Zposition Zrotation Xrotation Yrotation 
					JOINT Head
					{
						OFFSET 6.45672 0.0 0.0
						CHANNELS 6 Xposition Yposition Zposition Zrotation Xrotation Yrotation 
						End Site
						{
							OFFSET 0.0 0.0 0.0
						}
					}
				}
				JOINT Shoulder_L
				{
					OFFSET 12.9942 -0.242716 4.98039
					CHANNELS 6 Xposition Yposition Zposition Zrotation Xrotation Yrotation 
					JOINT UpperArm_L
					{
						OFFSET 5.34809 0.0 0.0
						CHANNELS 6 Xposition Yposition Zposition Zrotation Xrotation Yrotation 
						JOINT LowerArm_L
						{
							OFFSET 24.3286 1.87007e-05 0.0
							CHANNELS 6 Xposition Yposition Zposition Zrotation Xrotation Yrotation 
							JOINT Hand_L
							{
								OFFSET 22.2916 0.0 0.0
								CHANNELS 6 Xposition Yposition Zposition Zrotation Xrotation Yrotation 
								End Site
								{
									OFFSET 0.0 0.0 0.0
								}
							}
						}
					}
				}
				JOINT Shoulder_R
				{
					OFFSET 12.9945 -0.242716 -4.98039
					CHANNELS 6 Xposition Yposition Zposition Zrotation Xrotation Yrotation 
					JOINT UpperArm_R
					{
						OFFSET -5.34813 0.0 0.0
						CHANNELS 6 Xposition Yposition Zposition Zrotation Xrotation Yrotation 
						JOINT LowerArm_R
						{
							OFFSET -24.3289 0.000322201 0.0
							CHANNELS 6 Xposition Yposition Zposition Zrotation Xrotation Yrotation 
							JOINT Hand_R
							{
								OFFSET -22.2915 -0.000108084 0.0
								CHANNELS 6 Xposition Yposition Zposition Zrotation Xrotation Yrotation 
								End Site
								{
									OFFSET 0.0 0.0 0.0
								}
							}
						}
					}
				}
			}
		}
		JOINT UpperLeg_L
		{
			OFFSET -2.19248 -6.46944 0.0
			CHANNELS 6 Xposition Yposition Zposition Zrotation Xrotation Yrotation 
			JOINT LowerLeg_L
			{
				OFFSET 39.0811 0.0 -1.23785e-05
				CHANNELS 6 Xposition Yposition Zposition Zrotation Xrotation Yrotation 
				JOINT Foot_L
				{
					OFFSET 40.9854 0.0 -1.26872e-05
					CHANNELS 6 Xposition Yposition Zposition Zrotation Xrotation Yrotation 
					JOINT Toes_L
					{
						OFFSET 11.7543 0.0 0.0
						CHANNELS 6 Xposition Yposition Zposition Zrotation Xrotation Yrotation 
						End Site
						{
							OFFSET 0.0 0.0 0.0
						}
					}
				}
			}
		}
		JOINT UpperLeg_R
		{
			OFFSET -2.19251 6.46944 0.0
			CHANNELS 6 Xposition Yposition Zposition Zrotation Xrotation Yrotation 
			JOINT LowerLeg_R
			{
				OFFSET -39.0811 -0.00228153 -0.0401928
				CHANNELS 6 Xposition Yposition Zposition Zrotation Xrotation Yrotation 
				JOINT Foot_R
				{
					OFFSET -40.9854 0.0 0.0
					CHANNELS 6 Xposition Yposition Zposition Zrotation Xrotation Yrotation 
					JOINT Toes_R
					{
						OFFSET -11.7543 0.0 0.0
						CHANNELS 6 Xposition Yposition Zposition Zrotation Xrotation Yrotation 
						End Site
						{
							OFFSET 0.0 0.0 0.0
						}
					}
				}
			}
		}
	}
}
MOTION
Frames:	4
Frame Time:	0.0333333
0.000000 0.000000 0.000000 0.000000 0.000000 -0.000000 -5.654360 80.903900 -2.931110 86.977800 -4.243830 10.046100 15.735700 0.000005 -0.000001 84.908000 80.604800 -86.595200 8.984550 -0.406207 -0.000000 10.930700 -1.701970 -3.210060 16.377300 -0.000001 -0.000001 -3.055420 0.225858 -0.026592 6.456720 -0.000001 -0.000000 -4.183760 2.369810 2.525740 12.994200 -0.242716 4.980390 -90.932200 3.312450 -74.272400 5.348090 -0.000007 -0.000001 -63.075000 18.646600 -9.368890 24.328600 0.000019 0.000005 9.886730 14.892900 -34.142000 22.291600 -0.000001 0.000005 10.312500 5.270590 0.879904 12.994500 -0.242716 -4.980390 88.341300 9.221710 -79.756800 -5.348130 -0.000001 -0.000004 -60.518000 10.323800 -14.178100 -24.328900 0.000322 -0.000009 -2.716620 -13.816800 -11.230200 -22.291500 -0.000108 -0.000004 7.126300 5.398930 -2.858790 -2.192480 -6.469440 -0.000000 -166.147000 -14.636000 -18.080400 39.081100 -0.000007 -0.000012 -0.470752 0.214609 65.493500 40.985400 -0.000006 -0.000013 -1.261380 9.589690 -85.525900 11.754300 -0.000000 0.000003 -0.000234 -0.002115 -16.657000 -2.192510 6.469440 -0.000001 -176.690000 11.683600 161.348000 -39.081100 -0.002282 -0.040193 0.093254 -0.041885 65.064700 -40.985400 0.000008 0.000006 8.376360 0.035838 -86.780900 -11.754300 -0.000006 -0.000006 -0.933204 -1.172490 -16.055100
0.000000 0.000000 0.000000 0.000000 0.000000 -0.000000 -6.545520 83.026000 -2.113380 86.305700 -1.760700 10.010100 15.735700 0.000005 -0.000001 80.906500 81.261200 -83.930000 8.984550 -0.406207 -0.000000 9.433260 -2.790530 -5.812630 16.377300 -0.000001 -0.000001 -2.369690 -0.008761 -0.583984 6.456720 -0.000001 -0.000000 -3.782730 1.617270 4.557470 12.994200 -0.242716 4.980390 -90.920300 3.128330 -73.597200 5.348090 -0.000007 -0.000001 -62.475700 14.406100 -7.789000 24.328600 0.000019 0.000005 8.161960 13.170400 -32.187700 22.291600 -0.000001 0.000005 11.063000 5.266060 1.004190 12.994500 -0.242716 -4.980390 88.450900 7.802930 -78.732900 -5.348130 -0.000001 -0.000004 -54.729700 1.098260 -12.926100 -24.328900 0.000322 -0.000009 -1.065190 -14.229700 -4.323190 -22.291500 -0.000108 -0.000004 5.468340 5.353250 -1.479660 -2.192480 -6.469440 -0.000000 -165.157000 -13.203900 -15.226900 39.081100 -0.000007 -0.000012 -0.418869 0.246909 59.483000 40.985400 -0.000006 -0.000013 -1.665310 10.901500 -82.719600 11.754300 -0.000000 0.000003 -0.000178 -0.001677 -16.641000 -2.192510 6.469440 -0.000001 -176.224000 14.841100 165.244000 -39.081100 -0.002282 -0.040193 0.086462 -0.050512 58.754200 -40.985400 0.000008 0.000006 8.767570 0.918767 -84.272000 -11.754300 -0.000006 -0.000006 -1.072310 -1.348030 -16.321000
0.000000 0.000000 0.000000 0.000000 0.000000 -0.000000 -7.248660 85.740900 -1.187040 85.554600 0.214566 9.413970 15.735700 0.000005 -0.000001 75.204800 82.183100 -79.487300 8.984550 -0.406207 -0.000000 7.228530 -3.958030 -8.307840 16.377300 -0.000001 -0.000001 -0.900161 -0.122141 -0.922144 6.456720 -0.000001 -0.000000 -3.121390 1.072010 6.338210 12.994200 -0.242716 4.980390 -90.918000 2.895100 -72.398900 5.348090 -0.000007 -0.000001 -61.284700 10.272900 -5.684350 24.328600 0.000019 0.000005 7.144600 12.189100 -30.696500 22.291600 -0.000001 0.000005 10.767600 5.272330 0.835532 12.994500 -0.242716 -4.980390 88.752400 5.702710 -77.634200 -5.348130 -0.000001 -0.000004 -46.656300 -12.503400 -14.479100 -24.328900 0.000322 -0.000009 -0.001929 -12.737800 -0.000072 -22.291500 -0.000108 -0.000004 6.845210 5.285740 0.457666 -2.192480 -6.469440 -0.000000 -164.271000 -12.593800 -11.551100 39.081100 -0.000007 -0.000012 -0.330908 0.268006 50.996500 40.985400 -0.000006 -0.000013 -2.213070 12.205800 -78.753100 11.754300 -0.000000 0.000003 -0.000112 -0.001133 -16.620900 -2.192510 6.469440 -0.000001 -175.728000 17.792400 169.858000 -39.081100 -0.002282 -0.040193 0.067787 -0.054542 49.798600 -40.985400 0.000008 0.000006 9.075030 2.505340 -80.373500 -11.754300 -0.000006 -0.000006 -0.959249 -1.189070 -16.865700
0.000000 0.000000 0.000000 0.000000 0.000000 -0.000000 -7.586600 88.173500 -0.472043 85.313500 1.391220 8.162420 15.735700 0.000005 -0.000001 69.322500 83.279600 -74.540900 8.984550 -0.406207 -0.000000 4.632850 -4.595390 -10.242200 16.377300 -0.000001 -0.000001 0.778361 -0.238939 -1.474140 6.456720 -0.000001 -0.000000 -2.651650 1.060710 7.501470 12.994200 -0.242716 4.980390 -90.990000 2.960780 -71.503400 5.348090 -0.000007 -0.000001 -59.956900 6.677440 -3.662030 24.328600 0.000019 0.000005 7.079840 12.729200 -29.408800 22.291600 -0.000001 0.000005 10.556400 5.254290 1.319910 12.994500 -0.242716 -4.980390 89.260800 3.150770 -76.785800 -5.348130 -0.000001 -0.000004 -36.139300 -27.058500 -18.037900 -24.328900 0.000322 -0.000009 -0.001785 -15.575300 -0.000087 -22.291500 -0.000108 -0.000004 7.853080 5.260690 1.148490 -2.192480 -6.469440 -0.000000 -164.301000 -12.550500 -8.225900 39.081100 -0.000007 -0.000012 -0.246248 0.272683 42.084300 40.985400 -0.000006 -0.000013 -2.930940 12.762600 -74.537100 11.754300 -0.000000 0.000003 -0.000086 -0.000907 -16.612500 -2.192510 6.469440 -0.000001 -175.760000 20.480900 173.618000 -39.081100 -0.002282 -0.040193 0.047921 -0.051770 40.773600 -40.985400 0.000008 0.000006 9.126700 4.968490 -75.973800 -11.754300 -0.000006 -0.000006 -0.784802 -0.958925 -17.669900
